<?xml version="1.0" encoding="UTF-8"?>
<svg id="Instagram_Logo" xmlns="http://www.w3.org/2000/svg" baseProfile="tiny" version="1.2" viewBox="0 0 2215 2080">
  <path d="M2090,1212.1001v-.00012c4.8999-40,7.5-80.80005,7.5-122.09998,0-410-249.30005-761.80005-604.59998-912.09998L1434.5,0h-654l-58.40002,177.8999C366.79999,328.19995,117.5,680,117.5,1090c0,41.40002,2.59998,82.09998,7.5,122.09998L0,1351.80005l327,566.40002,183.5-38.40002c166,125.69995,372.79999,200.19995,597,200.19995s431-74.5,597-200.19995l183.5,38.40002,327-566.40002-125-139.69995ZM1721.24048,1056.13794c-46.39941,165.81207-215.47681,208.10327-365.8739,182.50665,262.89124,44.74304,329.76843,192.94836,185.33948,341.15363-274.29895,281.47076-394.24731-70.62207-424.99646-160.84106-5.6344-16.53931-8.27087-24.27655-8.30969-17.69733-.03894-6.57941-2.67529,1.15802-8.30957,17.69733-30.7356,90.21899-150.68182,442.32086-424.99652,160.84106-144.43109-148.20526-77.55627-296.41943,185.33948-341.15363-150.40161,25.59662-319.48126-16.69482-365.8739-182.50665-13.34894-47.6969-36.10773-341.46729-36.10773-381.15881,0-198.76416,174.23438-136.30005,281.76215-55.57019h.00769c149.03003,111.88232,309.3288,338.73315,368.18231,460.47443,58.85815-121.73236,219.14783-348.5943,368.18237-460.47443,107.53223-80.72986,281.76208-143.19397,281.76208,55.57019,0,39.69592-22.7594,333.46631-36.10779,381.15881Z"/>
</svg>
